<?xml version="1.0" encoding="UTF-8" standalone="no"?>
<!-- Created with Inkscape (http://www.inkscape.org/) -->

<svg
   width="57.102978mm"
   height="61.47937mm"
   viewBox="0 0 57.102977 61.47937"
   version="1.1"
   id="svg1"
   inkscape:version="1.3.2 (091e20e, 2023-11-25, custom)"
   sodipodi:docname="weixiang.svg"
   xmlns:inkscape="http://www.inkscape.org/namespaces/inkscape"
   xmlns:sodipodi="http://sodipodi.sourceforge.net/DTD/sodipodi-0.dtd"
   xmlns="http://www.w3.org/2000/svg"
   xmlns:svg="http://www.w3.org/2000/svg">
  <sodipodi:namedview
     id="namedview1"
     pagecolor="#ffffff"
     bordercolor="#000000"
     borderopacity="0.25"
     inkscape:showpageshadow="2"
     inkscape:pageopacity="0.0"
     inkscape:pagecheckerboard="0"
     inkscape:deskcolor="#d1d1d1"
     inkscape:document-units="mm"
     inkscape:zoom="1.4485269"
     inkscape:cx="188.81251"
     inkscape:cy="76.284394"
     inkscape:window-width="1920"
     inkscape:window-height="1009"
     inkscape:window-x="1912"
     inkscape:window-y="-8"
     inkscape:window-maximized="1"
     inkscape:current-layer="layer1" />
  <defs
     id="defs1">
    <inkscape:path-effect
       effect="powerstroke"
       id="path-effect7"
       is_visible="true"
       lpeversion="1.3"
       scale_width="1"
       interpolator_type="CentripetalCatmullRom"
       interpolator_beta="0.75"
       start_linecap_type="round"
       end_linecap_type="round"
       offset_points="120.55386,1.6321386"
       linejoin_type="spiro"
       miter_limit="4"
       not_jump="true"
       sort_points="true"
       message="&lt;b&gt;Ctrl + click&lt;/b&gt; on existing node and move it" />
    <inkscape:path-effect
       effect="simplify"
       id="path-effect6"
       is_visible="true"
       lpeversion="1.3"
       threshold="0.012"
       steps="1"
       smooth_angles="0"
       helper_size="0"
       simplify_individual_paths="false"
       simplify_just_coalesce="false"
       step="1" />
    <inkscape:path-effect
       effect="powerstroke"
       id="path-effect5"
       is_visible="true"
       lpeversion="1.3"
       scale_width="1"
       interpolator_type="CentripetalCatmullRom"
       interpolator_beta="0.75"
       start_linecap_type="round"
       end_linecap_type="round"
       offset_points="97.141278,1.8970267"
       linejoin_type="spiro"
       miter_limit="4"
       not_jump="true"
       sort_points="true"
       message="&lt;b&gt;Ctrl + click&lt;/b&gt; on existing node and move it" />
    <inkscape:path-effect
       effect="simplify"
       id="path-effect4"
       is_visible="true"
       lpeversion="1.3"
       threshold="0.012"
       steps="1"
       smooth_angles="0"
       helper_size="0"
       simplify_individual_paths="false"
       simplify_just_coalesce="false"
       step="1" />
  </defs>
  <g
     inkscape:label="Layer 1"
     inkscape:groupmode="layer"
     id="layer1"
     transform="translate(-36.970604,-115.20612)">
    <path
       style="fill:#000000;stroke-width:0.264583"
       id="path9"
       d="m 38.06948,126.6678 c 0.305308,-0.90614 1.084543,-2.79071 2.14163,-3.02598 2.063969,-0.45936 0.721892,0.22341 0.594693,0.29487 0.440764,0.57291 0.925309,1.11466 1.322295,1.71874 2.460654,3.74427 4.252574,7.88526 5.956472,12.00938 1.551929,3.75629 3.078782,7.78497 4.540067,11.57545 1.901198,4.96821 3.776835,9.94875 5.852568,14.84781 0.753732,1.77893 2.00401,4.63026 2.940063,6.40968 0.398052,0.75669 0.859401,1.47836 1.289103,2.21753 1.187492,1.71209 2.591766,3.64759 4.897916,3.96095 1.089909,0.1481 1.862789,-1.52078 2.243254,-2.1044 0,0 -0.355539,-0.22267 -0.355539,-0.22267 v 0 c -0.585163,0.26691 -1.158118,0.56239 -1.755487,0.80073 -0.478245,0.19081 -1.054637,0.17602 -1.466643,0.48485 -0.131543,0.0986 0.398095,0.51189 0.264292,0.41638 -1.146791,-0.8186 -1.531257,-1.54827 -2.391381,-2.69802 -0.445127,-0.7417 -0.923004,-1.46471 -1.335381,-2.22511 -0.984184,-1.81476 -2.242616,-4.61341 -3.034683,-6.44279 -2.123152,-4.90369 -4.029007,-9.89753 -5.942338,-14.88542 -1.216007,-3.16034 -3.220178,-8.42205 -4.510876,-11.56746 -1.686237,-4.10934 -3.473871,-8.23749 -5.858849,-12.00286 -0.384273,-0.60669 -0.850807,-1.15718 -1.27621,-1.73577 -0.777123,-0.53272 -1.491546,-1.17106 -2.33137,-1.59814 -1.463516,-0.74425 -2.566353,2.26589 -2.882472,3.20402 z" />
    <path
       style="fill:#000000;stroke-width:0.264583"
       id="path10"
       d="m 41.982231,156.77039 c 0.196617,-0.20973 0.416218,-0.40007 0.589851,-0.62919 4.191495,-5.53099 7.154831,-11.92158 10.138616,-18.14653 2.226104,-4.56298 4.097335,-9.28788 6.225077,-13.89476 0.01095,-0.0227 0.372589,-0.80091 0.474057,-0.93157 0.0217,-0.0279 0.132334,-0.0193 0.100346,-0.0343 -0.426162,-0.20042 -0.837467,-0.54958 -1.308135,-0.53368 -0.192545,0.007 0.03453,0.38395 0.04165,0.57647 0.01423,0.38462 0.01495,0.76962 0.02244,1.15443 0.08642,5.07493 0.75705,10.11177 1.262894,15.15526 0.372642,3.82819 0.648869,7.66484 0.841025,11.50612 0.04587,0.87667 -0.227089,1.80731 1.580045,1.35951 0.290705,-0.072 0.145409,-0.5811 0.221622,-0.87074 0.390057,-1.48236 0.398093,-1.4713 0.863929,-3.08987 1.744654,-5.33831 2.490832,-10.9117 3.404004,-16.4316 0.632413,-2.98344 0.874692,-6.11036 1.894385,-9.0041 0.606071,0.003 -0.867198,-0.45392 -1.158758,-0.19256 -0.296093,0.26541 0.09509,0.78959 0.14765,1.18374 0.287716,2.15765 0.631632,4.30708 0.967261,6.45762 0.852237,5.23006 1.710135,10.45803 2.367447,15.71675 0.287803,1.76703 0.305456,3.56938 0.538507,5.34157 0.480377,0.1382 0.95691,0.53868 1.441129,0.41461 0.252294,-0.0646 -0.01304,-0.52084 -0.01013,-0.78126 0.0232,-2.07238 0.221379,-4.14332 0.382804,-6.208 0.160666,-1.90923 0.369565,-3.81928 0.7624,-5.69676 0.124658,-0.59579 0.406167,-1.86847 0.753073,-2.456 0.121314,-0.20546 0.337111,-0.33775 0.505666,-0.50662 0.189426,0.0389 0.659329,-0.0539 0.568277,0.11676 -0.0985,0.18456 -0.647797,-0.21389 -0.627565,-0.006 0.05053,0.52002 0.538142,0.89779 0.760214,1.37072 0.859753,1.83095 1.368653,3.78856 1.883003,5.73469 0.674267,2.41533 0.860975,4.92539 1.328285,7.37774 0.359791,0.56496 0.421886,0.74136 1.715312,0.62312 0.232251,-0.0212 0.201118,-0.421 0.292592,-0.63553 0.512162,-1.20113 0.973106,-2.42746 1.450666,-3.64244 1.504145,-3.79387 2.450256,-7.77615 3.320229,-11.7543 0.5606,-3.07636 1.051814,-6.21152 0.963041,-9.34783 -0.109079,-0.61478 -0.126878,-1.69892 -0.82972,-2.01703 -1.797835,-0.8137 -1.277905,-1.07463 -2.100818,-0.30342 -0.982287,1.58517 -1.170178,3.51371 -1.36027,5.3292 -0.182322,1.7413 -0.260117,3.39116 -0.364406,5.14015 -0.115744,2.44787 -0.170698,4.9117 0.08383,7.35404 0.09656,0.92653 0.304263,2.39983 0.700727,3.29986 0.163992,0.37229 0.44264,0.68266 0.663962,1.02399 1.143936,0.77401 1.631325,1.20537 3.310268,1.47621 0.381103,0.0615 0.759026,-0.16554 1.11339,-0.31866 1.34791,-0.58242 2.276801,-1.63227 3.224692,-2.70257 1.458386,-2.38194 2.714342,-5.08133 2.932602,-7.90923 0.03122,-0.40454 0.0011,-0.81148 0.0016,-1.21723 -0.109625,-0.99794 -0.357521,-2.14518 -1.295625,-2.71062 -1.904153,-1.14773 -1.307295,-0.99107 -2.66447,-1.14556 -2.92295,0.14086 -5.764845,1.05291 -8.57622,1.80616 -5.190178,1.5238 -10.353313,3.13611 -15.574256,4.55309 -1.98243,0.5063 -3.965221,1.01978 -5.972387,1.42054 -0.660519,0.11703 -0.175339,0.0578 1.061194,0.48891 0,0 -0.246973,-0.16865 -0.246973,-0.16865 v 0 c 0.364935,0.70468 0.144386,0.7831 0.62243,0.67901 1.982073,-0.43203 3.941429,-0.96389 5.902124,-1.48189 5.21376,-1.44439 10.372989,-3.0732 15.577592,-4.54945 2.793524,-0.74322 5.629156,-1.67473 8.53736,-1.75166 0.854755,0.14771 1.117002,0.28644 -0.203184,-0.46679 -0.176445,-0.10068 0.344427,0.2207 0.489916,0.36248 0.624599,0.60866 0.838025,1.40238 0.929127,2.24568 0.0069,0.40137 0.04402,0.80334 0.02072,1.20409 -0.159967,2.75147 -1.39812,5.55204 -2.894648,7.82193 -0.824674,0.9053 -1.096986,1.31919 -2.107509,1.99689 -0.349494,0.23438 -0.719998,0.4443 -1.11152,0.59853 -0.346152,0.13636 -0.864664,-0.0343 -1.083884,0.26632 -0.154136,0.21134 0.645652,0.60235 0.395232,0.67795 -0.332351,0.10034 -0.599324,-0.35058 -0.898986,-0.52587 -0.23581,-0.33017 -0.531905,-0.6247 -0.707432,-0.9905 -0.424132,-0.8839 -0.655188,-2.37134 -0.76141,-3.28989 -0.282207,-2.44039 -0.238289,-4.90765 -0.13199,-7.35635 0.110318,-1.92662 0.157528,-3.22013 0.368662,-5.12497 0.196581,-1.77354 0.403183,-3.65694 1.348105,-5.21198 0.696818,-0.60527 0.396203,-0.14576 -0.67986,-1.08497 -0.08812,-0.0769 0.226425,0.0809 0.311952,0.1607 0.461478,0.43053 0.507616,1.16456 0.606388,1.7329 0.135951,3.13112 -0.352541,6.26217 -0.906955,9.33474 -0.852384,3.97306 -1.806617,7.94279 -3.330556,11.72035 -0.486521,1.2049 -0.952934,2.42458 -1.49125,3.60793 -0.09138,0.20088 -0.407305,0.40382 -0.294008,0.59321 0.298723,0.49934 1.792997,1.24497 1.057781,0.87167 -0.193498,-0.78794 -0.282559,-1.59388 -0.417716,-2.39383 -0.284988,-1.68673 -0.600348,-3.3691 -0.998498,-5.0333 -0.451162,-1.72335 -0.561859,-2.29049 -1.153986,-3.97398 -0.211238,-0.60058 -0.432509,-1.19871 -0.690287,-1.78083 -0.736687,-1.66363 -0.878459,-1.84918 -2.736445,-2.89618 -0.18455,-0.10399 -0.423654,0.003 -0.635479,0.005 -0.172286,0.18962 -0.390599,0.34592 -0.516856,0.56884 -0.354391,0.62571 -0.613867,1.84998 -0.74445,2.49361 -0.382209,1.88387 -0.585507,3.79765 -0.769718,5.70891 -0.140097,1.67485 -0.290126,3.34973 -0.389263,5.0277 -0.02286,0.38683 -0.04105,0.77395 -0.05582,1.16117 -0.0097,0.25367 -0.176223,0.56322 -0.01754,0.76135 0.36054,0.45015 0.946378,0.65943 1.419567,0.98915 -0.10921,-0.15593 -0.150416,-1.10606 -0.156144,-1.16081 -0.146497,-1.40033 -0.30706,-2.79913 -0.48768,-4.1955 -0.69554,-5.2612 -1.560701,-10.49598 -2.397512,-15.7361 -0.280736,-1.78535 -0.476847,-2.96427 -0.715385,-4.72445 -0.07695,-0.5678 -0.146474,-1.13662 -0.211349,-1.70593 -0.03781,-0.33179 -0.137756,-3.82043 -1.693307,-2.40562 -0.930225,2.94801 -1.200338,6.06551 -1.790081,9.08713 -0.894252,5.50658 -1.712397,11.05265 -3.500543,16.35879 -0.576842,1.89585 -0.426226,1.38012 -0.918134,3.06429 -0.08193,0.28051 -0.385812,0.58645 -0.244102,0.84202 0.273675,0.49356 0.819259,0.79252 1.307444,1.07567 0.272553,0.15808 -0.596984,-1.4931 -0.06528,-0.94298 -0.254148,-3.86007 -0.579713,-7.71537 -0.947203,-11.5662 -0.498398,-5.02354 -1.152935,-10.04511 -1.184519,-15.10072 2.65e-4,-0.38334 0.005,-0.7667 0.0011,-1.15002 -0.0021,-0.20126 0.116213,-0.45476 -0.01937,-0.60351 -1.487691,-1.63208 -1.466717,-1.09743 -2.020527,0.0721 -2.001004,4.67081 -3.817573,9.42232 -6.020353,14.00613 -2.966733,6.23654 -5.950575,12.58142 -10.30101,18.00078 -0.178562,0.22244 -0.392258,0.41423 -0.588388,0.62134 z" />
    <path
       style="fill:#000000;stroke-width:0.264583"
       id="path11"
       d="m 55.977445,115.54581 c -1.110869,1.78044 -0.142361,2.07652 1.40253,2.93148 1.221457,-0.29461 0.830723,-1.55054 0.344617,-2.33492 -0.651375,-0.63737 -0.204065,-0.2641 -1.475859,-0.93625 0,0 0.456237,0.36627 0.456237,0.36627 v 0 c -0.493022,-0.26664 -0.473115,-0.30059 -0.07992,0.0869 0.424447,0.63179 1.002234,1.90743 -0.1642,2.08797 0.205052,0.1375 0.386625,0.31908 0.615153,0.41251 0.134686,0.0551 -0.404151,-0.18979 -0.541914,-0.67617 -0.141631,-0.50004 0.11612,-0.96824 0.388707,-1.36123 z" />
  </g>
</svg>
